<svg width="37" height="37" viewBox="0 0 37 37" fill="none" xmlns="http://www.w3.org/2000/svg">
<path opacity="0.15" d="M2 18.9191C2 28.2245 9.61358 35.8381 18.9191 35.8381C28.2245 35.8381 35.8381 28.2245 35.8381 18.9191C35.8381 9.61358 28.2245 2 18.9191 2C9.61358 2 2 9.61358 2 18.9191Z" stroke="#1E2D78" stroke-width="1.8799" stroke-miterlimit="10" stroke-dasharray="12 14.5" stroke-dashoffset="19"/>
<path d="M2 18.9191C2 28.2245 9.61358 35.8381 18.9191 35.8381C28.2245 35.8381 35.8381 28.2245 35.8381 18.9191C35.8381 9.61358 28.2245 2 18.9191 2C9.61358 2 2 9.61358 2 18.9191Z" stroke="#1E2D78" stroke-width="1.8799" stroke-miterlimit="10" stroke-dasharray="14.5 12" stroke-dashoffset="7"/>
<path d="M16.0869 23.7946L21.2566 18.6249L16.0869 13.5492" stroke="#1E2D78" stroke-width="1.40992" stroke-miterlimit="10"/>
</svg>
