<svg width="40" height="40" viewBox="0 0 40 40" fill="none" xmlns="http://www.w3.org/2000/svg">
<path d="M13.4246 3.86401L13.6468 3.90104H16.7196V7.45517H13.6468C13.474 7.45517 13.3074 7.46751 13.147 7.49219C12.9865 7.51687 12.8569 7.56006 12.7582 7.62177C12.6595 7.68347 12.5669 7.75135 12.4806 7.82539C12.3942 7.89944 12.3201 7.97348 12.2584 8.04752C12.1967 8.12157 12.1474 8.20178 12.1103 8.28817C12.0733 8.37455 12.0486 8.4486 12.0363 8.5103C12.0239 8.572 12.0116 8.63371 11.9993 8.69541C11.9869 8.75712 11.9808 8.80031 11.9808 8.82499V8.89903V14.5264H17.9783L17.1268 18.0805H11.9808V35.8512H8.42662V18.0805H3.68778V14.5264H8.42662V9.0101C8.42662 8.24498 8.52535 7.56006 8.7228 6.95537C8.92025 6.35067 9.18558 5.87555 9.51878 5.53001C9.85198 5.18447 10.1913 4.88829 10.5369 4.64148C10.8824 4.39466 11.265 4.2219 11.6846 4.12317C12.1042 4.02444 12.4374 3.95657 12.6842 3.91955C12.931 3.88253 13.1778 3.86401 13.4246 3.86401ZM13.4246 1.49459C11.8944 1.49459 10.5245 1.86481 9.31515 2.60526C7.14319 3.91338 6.0572 6.04832 6.0572 9.0101V12.157H3.68778C3.04606 12.157 2.49073 12.3915 2.02178 12.8604C1.55283 13.3294 1.31836 13.8847 1.31836 14.5264V18.0805C1.31836 18.7223 1.55283 19.2776 2.02178 19.7465C2.49073 20.2155 3.04606 20.45 3.68778 20.45H6.0572V35.8142C6.0572 36.4806 6.2855 37.0421 6.74211 37.4987C7.19872 37.9553 7.76022 38.1836 8.42662 38.1836H11.9808C12.6225 38.1836 13.1778 37.9553 13.6468 37.4987C14.1157 37.0421 14.3502 36.4806 14.3502 35.8142V20.45H17.1268C17.6698 20.45 18.1511 20.2895 18.5707 19.9687C18.9903 19.6478 19.2741 19.2406 19.4222 18.7469L20.2367 15.1928C20.4588 14.4277 20.3354 13.7304 19.8665 13.1011C19.3975 12.4717 18.7682 12.157 17.9783 12.157H14.3502V9.82459H16.7196C17.3613 9.82459 17.9166 9.59011 18.3856 9.12117C18.8545 8.65222 19.089 8.09689 19.089 7.45517V4.0121C19.089 3.96274 19.089 3.92572 19.089 3.90104C19.089 3.23464 18.8607 2.67313 18.4041 2.21653C17.9475 1.75992 17.3983 1.53162 16.7566 1.53162H13.7208C13.6221 1.50694 13.5233 1.49459 13.4246 1.49459Z" fill="#1E2E85"/>
</svg>
