<svg width="39" height="40" viewBox="0 0 39 40" fill="none" xmlns="http://www.w3.org/2000/svg">
<g clip-path="url(#clip0_5_4295)">
<path d="M37.4853 37.9986H29.7846C29.5132 37.9986 29.2787 37.9061 29.0812 37.721C28.8838 37.5358 28.785 37.3075 28.785 37.036V24.6336C28.785 23.8191 28.7048 23.128 28.5444 22.5604C28.384 21.9927 28.1989 21.5731 27.9891 21.3016C27.7793 21.0301 27.514 20.8142 27.1931 20.6537C26.8722 20.4933 26.6316 20.4069 26.4712 20.3946C26.3107 20.3822 26.1071 20.3761 25.8603 20.3761C25.2679 20.3761 24.7373 20.5241 24.2683 20.8203C23.7994 21.1165 23.4724 21.4065 23.2873 21.6903C23.1021 21.9742 22.9479 22.2642 22.8245 22.5604C22.7751 22.7085 22.7319 22.9121 22.6949 23.1712C22.6579 23.4304 22.6394 23.7327 22.6394 24.0783V37.036C22.6394 37.3075 22.5406 37.542 22.3432 37.7395C22.1457 37.9369 21.9113 38.0356 21.6398 38.0356H13.9391C13.8157 38.0356 13.6923 38.011 13.5689 37.9616C13.4455 37.9122 13.3344 37.8382 13.2357 37.7395C13.0383 37.542 12.9519 37.3075 12.9766 37.036C12.9766 37.036 12.9766 36.7152 12.9766 36.0735C12.9766 35.4317 12.9766 34.6173 12.9766 33.63C12.9766 32.6427 12.9827 31.4951 12.9951 30.1869C13.0074 28.8788 13.0136 27.546 13.0136 26.1885C13.0136 24.8311 13.0136 23.4674 13.0136 22.0976C13.0136 20.7278 13.0136 19.4875 13.0136 18.3769C13.0136 17.2662 13.0074 16.3036 12.9951 15.4891C12.9827 14.6746 12.9766 14.144 12.9766 13.8972C12.9519 13.6257 13.0383 13.385 13.2357 13.1752C13.4332 12.9654 13.6676 12.8605 13.9391 12.8605H21.6398C21.7879 12.8605 21.9236 12.8852 22.047 12.9346C22.1704 12.984 22.2753 13.0518 22.3617 13.1382C22.4481 13.2246 22.516 13.3295 22.5653 13.4529C22.6147 13.5763 22.6394 13.7121 22.6394 13.8601V14.4155C24.219 13.0086 26.2058 12.3052 28.5999 12.3052C31.6851 12.3052 34.0977 13.3172 35.8378 15.341C37.5778 17.3649 38.4478 20.1663 38.4478 23.7451V37.036C38.4478 37.1595 38.4232 37.2829 38.3738 37.4063C38.3244 37.5297 38.2566 37.6346 38.1702 37.721C38.0838 37.8073 37.9789 37.8752 37.8555 37.9246C37.7321 37.9739 37.6087 37.9986 37.4853 37.9986ZM30.7472 36.0364H36.4857V23.7451C36.4857 20.7339 35.8008 18.4077 34.4309 16.7664C33.0611 15.1251 31.1174 14.3044 28.5999 14.3044C26.0331 14.3044 24.0339 15.3657 22.6023 17.4883C22.4789 17.9573 22.1704 18.1917 21.6768 18.1917H21.6027C21.2325 18.1917 20.9487 18.019 20.7512 17.6734C20.6031 17.4266 20.5785 17.1675 20.6772 16.896V14.8227H14.9387C14.9881 17.5624 14.9881 24.6336 14.9387 36.0364H20.6772V24.0783C20.6772 23.1157 20.7883 22.3629 21.0104 21.8199C21.1832 21.4003 21.3929 21.0116 21.6398 20.6537C21.8866 20.2958 22.1642 19.975 22.4728 19.6911C22.7813 19.4073 23.1145 19.1728 23.4724 18.9877C23.8302 18.8026 24.2128 18.6545 24.6201 18.5435C25.0273 18.4324 25.4407 18.3769 25.8603 18.3769C26.8969 18.3769 27.7793 18.6237 28.5074 19.1173C29.2355 19.6109 29.7908 20.3205 30.1734 21.2461C30.5559 22.1716 30.7472 23.3008 30.7472 24.6336V36.0364ZM9.68159 37.9986H1.98098C1.70948 37.9986 1.47501 37.9061 1.27755 37.721C1.0801 37.5358 0.981376 37.3075 0.981376 37.036V13.8601C0.981376 13.5887 1.0801 13.3542 1.27755 13.1567C1.47501 12.9593 1.70948 12.8605 1.98098 12.8605H9.68159C9.95309 12.8605 10.1876 12.9593 10.385 13.1567C10.5825 13.3542 10.6812 13.5887 10.6812 13.8601V37.036C10.6812 37.2088 10.638 37.3692 10.5516 37.5173C10.4652 37.6654 10.3418 37.7827 10.1814 37.869C10.021 37.9554 9.85436 37.9986 9.68159 37.9986ZM2.98057 36.0364H8.71902V14.8227H2.98057V36.0364ZM5.83128 11.6758H5.79426C4.26401 11.6758 3.00526 11.2007 2.018 10.2505C1.03074 9.30025 0.537109 8.1032 0.537109 6.65933C0.537109 5.21547 1.04308 4.02459 2.05502 3.08669C3.06696 2.14879 4.3504 1.67984 5.90533 1.67984C7.4109 1.67984 8.65731 2.14262 9.64457 3.06818C10.6318 3.99373 11.1378 5.18461 11.1625 6.64082C11.1625 8.09702 10.6627 9.30025 9.66308 10.2505C8.66348 11.2007 7.38622 11.6758 5.83128 11.6758ZM5.90533 3.64202C4.89339 3.64202 4.07273 3.91969 3.44335 4.47502C2.81397 5.03035 2.49929 5.76463 2.49929 6.67784C2.49929 7.56637 2.8078 8.29448 3.42484 8.86215C4.04188 9.42982 4.83168 9.71366 5.79426 9.71366H5.83128C6.49768 9.71366 7.08387 9.58408 7.58984 9.32493C8.09581 9.06577 8.49071 8.70789 8.77455 8.25129C9.05839 7.79468 9.2003 7.2702 9.2003 6.67784C9.17562 5.76463 8.8671 5.03035 8.27475 4.47502C7.68239 3.91969 6.89259 3.64202 5.90533 3.64202Z" fill="#1E2E85"/>
</g>
<defs>
<clipPath id="clip0_5_4295">
<rect width="38.9844" height="38.9844" fill="white" transform="matrix(1 0 0 -1 0 39.1094)"/>
</clipPath>
</defs>
</svg>
